<svg width="20" height="17" fill="none" xmlns="http://www.w3.org/2000/svg"><path d="M12.002 0H19c.513 0 .936.469.993 1.073l.007.141v8.501c0 .671-.448 1.215-1 1.215-.513 0-.936-.47-.994-1.073L18 9.715l-.001-5.569-7.293 8.857c-.36.437-.927.471-1.32.101l-.094-.1-2.296-2.784-5.289 6.424c-.39.475-1.023.475-1.414 0-.36-.437-.388-1.126-.083-1.603l.083-.114 5.995-7.282c.36-.438.927-.472 1.32-.102l.094.1 2.296 2.785 6.586-8h-4.582c-.513 0-.935-.468-.993-1.072l-.007-.142c0-.622.386-1.136.884-1.206L12.002 0H19h-6.998z" fill="#05BC39"/></svg>