<svg width="24" height="19" fill="none" xmlns="http://www.w3.org/2000/svg"><path d="M14.88 7.252c1.127 0 2.041.812 2.041 1.813v4.92c0 2.575-2.35 4.663-5.25 4.663-2.901 0-5.252-2.088-5.252-4.663v-4.92c0-1.001.914-1.813 2.042-1.813h6.419zm0 1.554H8.46c-.16 0-.291.116-.291.259v4.92c0 1.717 1.567 3.109 3.501 3.109s3.501-1.392 3.501-3.11V9.066c0-.143-.13-.259-.291-.259zM2.042 7.252l3.945-.001c-.401.43-.662.967-.722 1.555H2.042c-.161 0-.292.116-.292.259v3.366c0 1.43 1.306 2.591 2.918 2.591.233 0 .46-.024.678-.07.099.522.28 1.02.528 1.483a5.179 5.179 0 01-1.206.141C2.09 16.576 0 14.72 0 12.431V9.065c0-1.001.914-1.813 2.042-1.813zm15.312-.001l3.938.001c1.127 0 2.041.812 2.041 1.813v3.367c0 2.289-2.089 4.144-4.666 4.144-.416 0-.82-.048-1.203-.139.25-.464.431-.962.532-1.484.215.045.44.069.67.069 1.611 0 2.917-1.16 2.917-2.59V9.065c0-.143-.13-.259-.291-.259h-3.217a2.678 2.678 0 00-.721-1.555zM11.667 0c1.933 0 3.5 1.391 3.5 3.108s-1.567 3.108-3.5 3.108-3.5-1.391-3.5-3.108S9.734 0 11.667 0zm7.583 1.036c1.61 0 2.917 1.16 2.917 2.59s-1.306 2.59-2.917 2.59c-1.61 0-2.917-1.16-2.917-2.59s1.306-2.59 2.917-2.59zm-15.167 0C5.694 1.036 7 2.196 7 3.626s-1.306 2.59-2.917 2.59c-1.61 0-2.916-1.16-2.916-2.59s1.306-2.59 2.916-2.59zm7.584.518c-.967 0-1.75.696-1.75 1.554 0 .858.783 1.554 1.75 1.554.966 0 1.75-.696 1.75-1.554 0-.858-.784-1.554-1.75-1.554zM19.25 2.59c-.644 0-1.167.464-1.167 1.036 0 .572.523 1.036 1.167 1.036s1.167-.464 1.167-1.036c0-.572-.523-1.036-1.167-1.036zm-15.167 0c-.644 0-1.166.464-1.166 1.036 0 .572.522 1.036 1.166 1.036.645 0 1.167-.464 1.167-1.036 0-.572-.522-1.036-1.167-1.036z" fill="#121B30"/></svg>