<svg width="110" height="108" fill="none" xmlns="http://www.w3.org/2000/svg"><path d="M0 2.88V0h2.916v2.88H0zm15.23 0V0h2.916v2.88H15.23zm15.23 0V0h2.917v2.88H30.46zm15.231 0V0h2.916v2.88h-2.916zm15.231 0V0h2.916v2.88h-2.916zm15.23 0V0h2.916v2.88h-2.916zm15.23 0V0h2.916v2.88h-2.916zm15.231 0V0h2.916v2.88h-2.916zM0 23.88V21h2.916v2.88H0zm15.23 0V21h2.916v2.88H15.23zm15.23 0V21h2.917v2.88H30.46zm15.231 0V21h2.916v2.88h-2.916zm15.231 0V21h2.916v2.88h-2.916zm15.23 0V21h2.916v2.88h-2.916zm15.23 0V21h2.916v2.88h-2.916zm15.231 0V21h2.916v2.88h-2.916zM0 44.88V42h2.916v2.88H0zm15.23 0V42h2.916v2.88H15.23zm15.23 0V42h2.917v2.88H30.46zm15.231 0V42h2.916v2.88h-2.916zm15.231 0V42h2.916v2.88h-2.916zm15.23 0V42h2.916v2.88h-2.916zm15.23 0V42h2.916v2.88h-2.916zm15.231 0V42h2.916v2.88h-2.916zM0 65.88V63h2.916v2.88H0zm15.23 0V63h2.916v2.88H15.23zm15.23 0V63h2.917v2.88H30.46zm15.231 0V63h2.916v2.88h-2.916zm15.231 0V63h2.916v2.88h-2.916zm15.23 0V63h2.916v2.88h-2.916zm15.23 0V63h2.916v2.88h-2.916zm15.231 0V63h2.916v2.88h-2.916zM0 86.88V84h2.916v2.88H0zm15.23 0V84h2.916v2.88H15.23zm15.23 0V84h2.917v2.88H30.46zm15.231 0V84h2.916v2.88h-2.916zm15.231 0V84h2.916v2.88h-2.916zm15.23 0V84h2.916v2.88h-2.916zm15.23 0V84h2.916v2.88h-2.916zm15.231 0V84h2.916v2.88h-2.916zM0 107.88V105h2.916v2.88H0zm15.23 0V105h2.916v2.88H15.23zm15.23 0V105h2.917v2.88H30.46zm15.231 0V105h2.916v2.88h-2.916zm15.231 0V105h2.916v2.88h-2.916zm15.23 0V105h2.916v2.88h-2.916zm15.23 0V105h2.916v2.88h-2.916zm15.231 0V105h2.916v2.88h-2.916z" fill="#fff"/></svg>