<svg width="19" height="19" fill="none" xmlns="http://www.w3.org/2000/svg"><path d="M1.188 10.082v7.125c0 .656.533 1.188 1.187 1.188h5.938v-8.313H1.186zm16.625-4.75h-3.758a4.68 4.68 0 00.663-.53 2.482 2.482 0 000-3.494c-.931-.938-2.553-.936-3.483 0-.515.516-1.881 2.62-1.692 4.024h-.086c.188-1.405-1.178-3.508-1.692-4.024-.93-.936-2.553-.936-3.483 0A2.485 2.485 0 004.281 4.8a4.7 4.7 0 00.664.531H1.187A1.19 1.19 0 000 6.52V8.3c0 .329.266.595.594.595h7.718V6.52h2.376v2.375h7.718A.594.594 0 0019 8.3V6.52c0-.655-.532-1.188-1.188-1.188zm-9.57-.039s-.05.04-.22.04c-.82 0-2.387-.853-2.899-1.369a1.295 1.295 0 010-1.82c.241-.241.56-.374.9-.374.339 0 .658.133.9.375.8.805 1.595 2.862 1.318 3.148zm2.733.04c-.169 0-.218-.039-.218-.04-.277-.286.519-2.343 1.319-3.148.478-.483 1.316-.486 1.799 0a1.293 1.293 0 010 1.82c-.512.515-2.078 1.367-2.9 1.367zm-.288 4.749v8.313h5.937c.655 0 1.188-.532 1.188-1.188v-7.125h-7.125z" fill="#F0BB65"/></svg>