<svg width="49" height="34" fill="none" xmlns="http://www.w3.org/2000/svg"><path d="M48.657.037H35.93c-.073 0-.182.037-.219.11L19.081 17.55a.33.33 0 01-.437.037c-.146-.11-.146-.294-.036-.441l5.98-8.279c.11-.11.073-.294-.036-.405L16.201.11c-.073-.073-.146-.11-.219-.11-.073 0-.146.037-.219.11L.083 16.778a.338.338 0 000 .441l15.68 16.594c.11.11.329.147.438 0 .948-.846 4.157-4.194 4.303-4.342L48.876.59c.11-.11.11-.221.073-.331-.036-.148-.146-.221-.291-.221zm-21.042 25.24a.338.338 0 010-.442l6.31-6.438c.072-.074.145-.11.218-.11.073 0 .146.036.219.11l14.55 15.085c.074.11.11.22.074.331-.037.11-.146.184-.292.184H36.659c-.984 0-.729.074-1.312-.515l-7.732-8.205z" fill="#fff"/></svg>