<svg width="20" height="21" fill="none" xmlns="http://www.w3.org/2000/svg"><path d="M8.293 2.561c.404 0 .731.344.731.768v8.195h7.805c.37 0 .677.29.725.664l.007.105c0 5.091-3.931 8.707-8.78 8.707C3.93 21 0 16.872 0 11.78c0-5.09 3.443-9.218 8.293-9.218zM7.56 4.135l-.204.025c-3.6.482-5.894 3.71-5.894 7.62 0 4.244 3.276 7.683 7.317 7.683 3.725 0 6.799-2.409 7.258-6.188l.023-.214H8.293c-.37 0-.677-.29-.725-.664l-.007-.104V4.135zM11.22 0C16.069 0 20 4.128 20 9.22c0 .424-.328.768-.732.768H11.22c-.404 0-.731-.344-.731-.768V.768c0-.424.327-.768.732-.768zm.731 1.574v6.877H18.5l-.023-.214c-.42-3.457-3.029-6.197-6.322-6.638l-.204-.025z" fill="#212121"/></svg>