<svg width="23" height="23" fill="none" xmlns="http://www.w3.org/2000/svg"><path d="M6.815 2.981l3.833-1.277 5.963.851 2.982 3.408 1.703 3.833v4.26l-2.13 3.833-4.684 2.981-3.834.426-3.407-1.278H5.537l-3.407.852.851-4.259-1.277-4.26.852-4.684L6.815 2.98z" fill="#fff"/><path d="M14.616 12.76c.245.09 1.558.735 1.824.869.267.134.445.2.512.312.067.111.067.646-.156 1.27-.222.623-1.289 1.192-1.802 1.269-.46.069-1.042.097-1.681-.106a15.306 15.306 0 01-1.522-.562c-2.678-1.157-4.428-3.853-4.561-4.032l-.002-.003c-.142-.19-1.088-1.452-1.088-2.758 0-1.314.69-1.96.934-2.228a.98.98 0 01.712-.334c.178 0 .356.002.512.01.164.008.384-.063.6.458.223.535.757 1.849.824 1.982.066.134.111.29.022.468-.089.178-.378.554-.667.913-.119.147-.273.278-.118.545.156.267.692 1.142 1.486 1.85 1.02.909 1.88 1.191 2.147 1.325.267.133.422.11.578-.067.156-.178.668-.78.845-1.047.178-.267.356-.223.601-.134z" fill="#4713DC"/><path fill-rule="evenodd" clip-rule="evenodd" d="M19.127 3.841A10.616 10.616 0 0011.57.708C5.68.708.887 5.5.884 11.392c0 1.883.491 3.721 1.426 5.341L.795 22.27l5.664-1.486c1.56.852 3.318 1.3 5.106 1.3h.004c5.889 0 10.683-4.793 10.685-10.684a10.62 10.62 0 00-3.127-7.559zm-7.558 16.44h-.004a8.87 8.87 0 01-4.52-1.239l-.324-.192-3.361.882.897-3.278-.211-.336a8.858 8.858 0 01-1.358-4.726c.002-4.896 3.986-8.88 8.885-8.88a8.82 8.82 0 016.278 2.604A8.828 8.828 0 0120.45 11.4c-.002 4.897-3.986 8.881-8.88 8.881z" fill="#fff"/></svg>